
 #######                         #######                      
 #       ###### ###### #         #       #####  ###### ###### 
 #       #      #      #         #       #    # #      #      
 #####   #####  #####  #         #####   #    # #####  #####  
 #       #      #      #         #       #####  #      #      
 #       #      #      #         #       #   #  #      #      
 #       ###### ###### ######    #       #    # ###### ###### 


Genre:Animation | Adventure | Comedy
Language:English
IMDb: 
http://www.imdb.com/title/tt1302067/
Source:BluRay.x264-CROSSBOW
Subtitles:Romana

Format : MPEG-4
Format profile : Base Media
Codec ID : isom
File size : 1.93 GiB
Duration : 1h 20mn
Overall bit rate : 3 433 Kbps

Video
Format profile : High@L4.1
Format settings, CABAC : Yes
Format settings, ReFrames : 3 frames
Codec ID : avc1
Codec ID/Info : Advanced Video Coding
Duration : 1h 20mn
Bit rate mode : Variable
Bit rate : 3 122 Kbps
Maximum bit rate : 18.0 Mbps
Width : 1 280 pixels
Height : 720 pixels
Display aspect ratio : 16:9
Frame rate mode : Constant
Frame rate : 23.976 fps
Color space : YUV
Chroma subsampling : 4:2:0
Bit depth : 8 bits
Scan type : Progressive
Bits/(Pixel*Frame) : 0.141
Stream size : 1.68 GiB (87%)
Writing library : x264 

Audio
ID : 2
Format : AAC
Format/Info : Advanced Audio Codec
Format version : Version 4
Format profile : LC
Format settings, SBR : No
Codec ID : 40
Duration : 1h 20mn
Bit rate mode : Variable
Bit rate : 445 Kbps
Maximum bit rate : 557 Kbps
Channel(s) : 6 channels
Channel positions : Front: L C R, Side: L R, LFE
Sampling rate : 48.0 KHz
Stream size : 256 MiB (13%)
Encoded date : UTC 2011-03-02 10:17:22
Tagged date : UTC 2011-03-02 10:17:42


Plot:
A documentary filmmaker travels to Jellystone Park to shoot a project and soon crosses paths with Yogi Bear, his sidekick Boo-Boo, and Ranger Smith






================================== 
http://thepiratebay.org/user/hiest
==================================







Screenshots:
 
http://www.postimg.com/30000/29383.jpg
 
http://www.postimg.com/30000/29384.jpg
 
http://www.postimg.com/30000/29385.jpg
 
http://www.postimg.com/30000/29387.jpg
 
http://www.postimg.com/30000/29388.jpg
 
http://www.postimg.com/30000/29389.jpg



 #######                         #######                      
 #       ###### ###### #         #       #####  ###### ###### 
 #       #      #      #         #       #    # #      #      
 #####   #####  #####  #         #####   #    # #####  #####  
 #       #      #      #         #       #####  #      #      
 #       #      #      #         #       #   #  #      #      
 #       ###### ###### ######    #       #    # ###### ###### 
